<svg width="24" height="24" viewBox="0 0 24 24" fill="none" xmlns="http://www.w3.org/2000/svg">
<path d="M19.5 8.8125C19.8481 8.8125 20.1819 8.67422 20.4281 8.42808C20.6742 8.18194 20.8125 7.8481 20.8125 7.5V4.5C20.8125 4.1519 20.6742 3.81806 20.4281 3.57192C20.1819 3.32578 19.8481 3.1875 19.5 3.1875H16.5C16.1519 3.1875 15.8181 3.32578 15.5719 3.57192C15.3258 3.81806 15.1875 4.1519 15.1875 4.5V5.4375H8.8125V4.5C8.8125 4.1519 8.67422 3.81806 8.42808 3.57192C8.18194 3.32578 7.8481 3.1875 7.5 3.1875H4.5C4.1519 3.1875 3.81806 3.32578 3.57192 3.57192C3.32578 3.81806 3.1875 4.1519 3.1875 4.5V7.5C3.1875 7.8481 3.32578 8.18194 3.57192 8.42808C3.81806 8.67422 4.1519 8.8125 4.5 8.8125H5.4375V15.1875H4.5C4.1519 15.1875 3.81806 15.3258 3.57192 15.5719C3.32578 15.8181 3.1875 16.1519 3.1875 16.5V19.5C3.1875 19.8481 3.32578 20.1819 3.57192 20.4281C3.81806 20.6742 4.1519 20.8125 4.5 20.8125H7.5C7.8481 20.8125 8.18194 20.6742 8.42808 20.4281C8.67422 20.1819 8.8125 19.8481 8.8125 19.5V18.5625H15.1875V19.5C15.1875 19.8481 15.3258 20.1819 15.5719 20.4281C15.8181 20.6742 16.1519 20.8125 16.5 20.8125H19.5C19.8481 20.8125 20.1819 20.6742 20.4281 20.4281C20.6742 20.1819 20.8125 19.8481 20.8125 19.5V16.5C20.8125 16.1519 20.6742 15.8181 20.4281 15.5719C20.1819 15.3258 19.8481 15.1875 19.5 15.1875H18.5625V8.8125H19.5ZM16.3125 4.5C16.3125 4.45027 16.3323 4.40258 16.3674 4.36742C16.4026 4.33225 16.4503 4.3125 16.5 4.3125H19.5C19.5497 4.3125 19.5974 4.33225 19.6326 4.36742C19.6677 4.40258 19.6875 4.45027 19.6875 4.5V7.5C19.6875 7.54973 19.6677 7.59742 19.6326 7.63258C19.5974 7.66775 19.5497 7.6875 19.5 7.6875H16.5C16.4503 7.6875 16.4026 7.66775 16.3674 7.63258C16.3323 7.59742 16.3125 7.54973 16.3125 7.5V4.5ZM4.3125 7.5V4.5C4.3125 4.45027 4.33225 4.40258 4.36742 4.36742C4.40258 4.33225 4.45027 4.3125 4.5 4.3125H7.5C7.54973 4.3125 7.59742 4.33225 7.63258 4.36742C7.66775 4.40258 7.6875 4.45027 7.6875 4.5V7.5C7.6875 7.54973 7.66775 7.59742 7.63258 7.63258C7.59742 7.66775 7.54973 7.6875 7.5 7.6875H4.5C4.45027 7.6875 4.40258 7.66775 4.36742 7.63258C4.33225 7.59742 4.3125 7.54973 4.3125 7.5ZM7.6875 19.5C7.6875 19.5497 7.66775 19.5974 7.63258 19.6326C7.59742 19.6677 7.54973 19.6875 7.5 19.6875H4.5C4.45027 19.6875 4.40258 19.6677 4.36742 19.6326C4.33225 19.5974 4.3125 19.5497 4.3125 19.5V16.5C4.3125 16.4503 4.33225 16.4026 4.36742 16.3674C4.40258 16.3323 4.45027 16.3125 4.5 16.3125H7.5C7.54973 16.3125 7.59742 16.3323 7.63258 16.3674C7.66775 16.4026 7.6875 16.4503 7.6875 16.5V19.5ZM19.6875 16.5V19.5C19.6875 19.5497 19.6677 19.5974 19.6326 19.6326C19.5974 19.6677 19.5497 19.6875 19.5 19.6875H16.5C16.4503 19.6875 16.4026 19.6677 16.3674 19.6326C16.3323 19.5974 16.3125 19.5497 16.3125 19.5V16.5C16.3125 16.4503 16.3323 16.4026 16.3674 16.3674C16.4026 16.3323 16.4503 16.3125 16.5 16.3125H19.5C19.5497 16.3125 19.5974 16.3323 19.6326 16.3674C19.6677 16.4026 19.6875 16.4503 19.6875 16.5ZM17.4375 15.1875H16.5C16.1519 15.1875 15.8181 15.3258 15.5719 15.5719C15.3258 15.8181 15.1875 16.1519 15.1875 16.5V17.4375H8.8125V16.5C8.8125 16.1519 8.67422 15.8181 8.42808 15.5719C8.18194 15.3258 7.8481 15.1875 7.5 15.1875H6.5625V8.8125H7.5C7.8481 8.8125 8.18194 8.67422 8.42808 8.42808C8.67422 8.18194 8.8125 7.8481 8.8125 7.5V6.5625H15.1875V7.5C15.1875 7.8481 15.3258 8.18194 15.5719 8.42808C15.8181 8.67422 16.1519 8.8125 16.5 8.8125H17.4375V15.1875Z" fill="black"/>
</svg>
