<svg width="24" height="24" viewBox="0 0 24 24" fill="none" xmlns="http://www.w3.org/2000/svg">
<path d="M11.8 7.41989C10.9471 7.41989 10.1133 7.67281 9.40411 8.14668C8.69492 8.62054 8.14218 9.29406 7.81577 10.0821C7.48937 10.8701 7.40397 11.7372 7.57037 12.5737C7.73677 13.4103 8.14749 14.1787 8.75061 14.7818C9.35372 15.3849 10.1221 15.7956 10.9587 15.962C11.7952 16.1284 12.6623 16.043 13.4503 15.7166C14.2383 15.3902 14.9119 14.8375 15.3857 14.1283C15.8596 13.4191 16.1125 12.5853 16.1125 11.7324C16.111 10.5891 15.6562 9.49307 14.8478 8.68464C14.0393 7.87621 12.9433 7.42138 11.8 7.41989ZM11.8 14.9199C11.1696 14.9199 10.5533 14.7329 10.0291 14.3827C9.50494 14.0325 9.09639 13.5346 8.85514 12.9522C8.61388 12.3698 8.55076 11.7289 8.67375 11.1105C8.79674 10.4922 9.10032 9.92427 9.5461 9.47849C9.99188 9.03271 10.5598 8.72913 11.1782 8.60614C11.7965 8.48315 12.4374 8.54627 13.0198 8.78753C13.6022 9.02878 14.1001 9.43733 14.4503 9.96151C14.8006 10.4857 14.9875 11.102 14.9875 11.7324C14.9875 12.5778 14.6517 13.3885 14.0539 13.9863C13.4561 14.5841 12.6454 14.9199 11.8 14.9199ZM16.3 2.16989H7.3C5.9578 2.17138 4.671 2.70523 3.72192 3.65431C2.77284 4.60339 2.23899 5.89019 2.2375 7.23239V16.2324C2.23899 17.5746 2.77284 18.8614 3.72192 19.8105C4.671 20.7596 5.9578 21.2934 7.3 21.2949H16.3C17.6422 21.2934 18.929 20.7596 19.8781 19.8105C20.8272 18.8614 21.361 17.5746 21.3625 16.2324V7.23239C21.361 5.89019 20.8272 4.60339 19.8781 3.65431C18.929 2.70523 17.6422 2.17138 16.3 2.16989ZM20.2375 16.2324C20.2375 17.2767 19.8227 18.2782 19.0842 19.0166C18.3458 19.755 17.3443 20.1699 16.3 20.1699H7.3C6.25571 20.1699 5.25419 19.755 4.51577 19.0166C3.77735 18.2782 3.3625 17.2767 3.3625 16.2324V7.23239C3.3625 6.1881 3.77735 5.18658 4.51577 4.44816C5.25419 3.70973 6.25571 3.29489 7.3 3.29489H16.3C17.3443 3.29489 18.3458 3.70973 19.0842 4.44816C19.8227 5.18658 20.2375 6.1881 20.2375 7.23239V16.2324ZM17.6125 6.85739C17.6125 7.04281 17.5575 7.22407 17.4545 7.37824C17.3515 7.53241 17.2051 7.65257 17.0338 7.72353C16.8625 7.79449 16.674 7.81305 16.4921 7.77688C16.3102 7.7407 16.1432 7.65142 16.0121 7.5203C15.881 7.38919 15.7917 7.22215 15.7555 7.04029C15.7193 6.85843 15.7379 6.66993 15.8089 6.49863C15.8798 6.32732 16 6.1809 16.1542 6.07789C16.3083 5.97487 16.4896 5.91989 16.675 5.91989C16.9236 5.91989 17.1621 6.01866 17.3379 6.19448C17.5137 6.37029 17.6125 6.60875 17.6125 6.85739Z" fill="#F3F3F3"/>
</svg>
