<svg width="24" height="24" viewBox="0 0 24 24" fill="none" xmlns="http://www.w3.org/2000/svg">
<path d="M19.9066 2.74368H3.40656C3.05846 2.74368 2.72462 2.88196 2.47848 3.12811C2.23234 3.37425 2.09406 3.70809 2.09406 4.05618V20.5562C2.09406 20.9043 2.23234 21.2381 2.47848 21.4843C2.72462 21.7304 3.05846 21.8687 3.40656 21.8687H19.9066C20.2547 21.8687 20.5885 21.7304 20.8346 21.4843C21.0808 21.2381 21.2191 20.9043 21.2191 20.5562V4.05618C21.2191 3.70809 21.0808 3.37425 20.8346 3.12811C20.5885 2.88196 20.2547 2.74368 19.9066 2.74368ZM20.0941 20.5562C20.0941 20.6059 20.0743 20.6536 20.0391 20.6888C20.004 20.7239 19.9563 20.7437 19.9066 20.7437H3.40656C3.35683 20.7437 3.30914 20.7239 3.27397 20.6888C3.23881 20.6536 3.21906 20.6059 3.21906 20.5562V4.05618C3.21906 4.00645 3.23881 3.95876 3.27397 3.9236C3.30914 3.88844 3.35683 3.86868 3.40656 3.86868H19.9066C19.9563 3.86868 20.004 3.88844 20.0391 3.9236C20.0743 3.95876 20.0941 4.00645 20.0941 4.05618V20.5562ZM8.46906 10.8062V16.8062C8.46906 16.9554 8.40979 17.0984 8.3043 17.2039C8.19881 17.3094 8.05574 17.3687 7.90656 17.3687C7.75737 17.3687 7.6143 17.3094 7.50881 17.2039C7.40332 17.0984 7.34406 16.9554 7.34406 16.8062V10.8062C7.34406 10.657 7.40332 10.5139 7.50881 10.4084C7.6143 10.3029 7.75737 10.2437 7.90656 10.2437C8.05574 10.2437 8.19881 10.3029 8.3043 10.4084C8.40979 10.5139 8.46906 10.657 8.46906 10.8062ZM16.7191 13.4312V16.8062C16.7191 16.9554 16.6598 17.0984 16.5543 17.2039C16.4488 17.3094 16.3057 17.3687 16.1566 17.3687C16.0074 17.3687 15.8643 17.3094 15.7588 17.2039C15.6533 17.0984 15.5941 16.9554 15.5941 16.8062V13.4312C15.5941 12.8842 15.3768 12.3596 14.99 11.9728C14.6032 11.586 14.0786 11.3687 13.5316 11.3687C12.9845 11.3687 12.4599 11.586 12.0731 11.9728C11.6864 12.3596 11.4691 12.8842 11.4691 13.4312V16.8062C11.4691 16.9554 11.4098 17.0984 11.3043 17.2039C11.1988 17.3094 11.0557 17.3687 10.9066 17.3687C10.7574 17.3687 10.6143 17.3094 10.5088 17.2039C10.4033 17.0984 10.3441 16.9554 10.3441 16.8062V10.8062C10.3441 10.657 10.4033 10.5139 10.5088 10.4084C10.6143 10.3029 10.7574 10.2437 10.9066 10.2437C11.0557 10.2437 11.1988 10.3029 11.3043 10.4084C11.4098 10.5139 11.4691 10.657 11.4691 10.8062V11.004C11.9326 10.6106 12.499 10.358 13.1015 10.2759C13.7039 10.1939 14.3173 10.2859 14.8692 10.541C15.4211 10.7962 15.8885 11.2038 16.2162 11.7159C16.544 12.228 16.7185 12.8232 16.7191 13.4312ZM8.84406 8.18118C8.84406 8.3666 8.78907 8.54786 8.68606 8.70203C8.58304 8.8562 8.43663 8.97636 8.26532 9.04732C8.09402 9.11828 7.90552 9.13684 7.72366 9.10067C7.5418 9.0645 7.37475 8.97521 7.24364 8.8441C7.11253 8.71298 7.02324 8.54594 6.98707 8.36408C6.9509 8.18222 6.96946 7.99372 7.04042 7.82242C7.11138 7.65111 7.23154 7.50469 7.38571 7.40168C7.53988 7.29867 7.72114 7.24368 7.90656 7.24368C8.1552 7.24368 8.39365 7.34245 8.56947 7.51827C8.74528 7.69409 8.84406 7.93254 8.84406 8.18118Z" fill="#F3F3F3"/>
</svg>
