<svg width="24" height="24" viewBox="0 0 24 24" fill="none" xmlns="http://www.w3.org/2000/svg">
<path d="M20.7173 10.7607C20.7173 12.8278 19.9955 14.716 18.6848 16.0791C17.4661 17.3466 15.8151 18.0732 14.1548 18.0732C12.3342 18.0732 11.197 17.4103 10.5333 16.7944L9.45233 21.3882C9.42355 21.5118 9.35379 21.6221 9.25439 21.7011C9.15499 21.78 9.03179 21.8231 8.90483 21.8232C8.86158 21.8232 8.81847 21.8182 8.77639 21.8082C8.63121 21.7741 8.5055 21.6837 8.42692 21.5569C8.34834 21.4302 8.32331 21.2774 8.35733 21.1322L11.3573 8.38222C11.3728 8.30892 11.4028 8.23947 11.4455 8.17792C11.4882 8.11637 11.5428 8.06397 11.606 8.0238C11.6692 7.98363 11.7399 7.95649 11.8137 7.94398C11.8876 7.93147 11.9632 7.93384 12.0361 7.95095C12.1091 7.96806 12.1778 7.99956 12.2384 8.04361C12.299 8.08766 12.3502 8.14337 12.389 8.20747C12.4277 8.27157 12.4533 8.34277 12.4642 8.41689C12.4751 8.49101 12.471 8.56655 12.4523 8.63909L10.8501 15.4482C11.1126 15.8541 12.0183 16.9482 14.1548 16.9482C16.8276 16.9482 19.5923 14.6335 19.5923 10.7607C19.592 9.69674 19.3469 8.64715 18.8761 7.69307C18.4054 6.73898 17.7214 5.90596 16.8773 5.25842C16.0331 4.61087 15.0513 4.16616 14.0078 3.95866C12.9644 3.75117 11.8871 3.78646 10.8594 4.06179C9.83177 4.33713 8.88119 4.84514 8.08122 5.54654C7.28124 6.24793 6.6533 7.12393 6.24596 8.10678C5.83861 9.08963 5.66278 10.153 5.73205 11.2147C5.80133 12.2763 6.11385 13.3078 6.64546 14.2294C6.684 14.2934 6.70941 14.3645 6.72018 14.4384C6.73095 14.5124 6.72688 14.5878 6.70821 14.6601C6.68953 14.7325 6.65662 14.8004 6.61141 14.8599C6.56619 14.9194 6.50957 14.9693 6.44485 15.0067C6.38014 15.044 6.30862 15.0681 6.23449 15.0775C6.16035 15.087 6.08508 15.0815 6.01307 15.0615C5.94107 15.0415 5.87376 15.0074 5.8151 14.9611C5.75643 14.9148 5.70758 14.8573 5.67139 14.7919C5.05343 13.7209 4.6901 12.5221 4.60948 11.2882C4.52887 10.0543 4.73315 8.81842 5.20651 7.6761C5.67987 6.53378 6.40963 5.51564 7.33936 4.70043C8.26908 3.88521 9.37386 3.29477 10.5682 2.97476C11.7626 2.65475 13.0146 2.61374 14.2274 2.85492C15.4402 3.0961 16.5812 3.61299 17.5623 4.36562C18.5433 5.11826 19.3382 6.08646 19.8852 7.19536C20.4323 8.30426 20.717 9.52414 20.7173 10.7607Z" fill="#F3F3F3"/>
</svg>
