<svg width="24" height="24" viewBox="0 0 24 24" fill="none" xmlns="http://www.w3.org/2000/svg">
<path d="M19.6309 20.0267L13.6853 10.6836L19.5728 4.2036C19.63 4.15047 19.6756 4.086 19.7066 4.0143C19.7375 3.9426 19.7532 3.86524 19.7526 3.78714C19.752 3.70905 19.7352 3.63193 19.7032 3.56069C19.6712 3.48946 19.6247 3.42568 19.5666 3.3734C19.5086 3.32113 19.4403 3.28151 19.3662 3.25707C19.292 3.23263 19.2135 3.22391 19.1358 3.23145C19.0581 3.23899 18.9828 3.26264 18.9147 3.30089C18.8466 3.33913 18.7872 3.39114 18.7403 3.4536L13.0628 9.69922L9.13468 3.52672C9.08357 3.44635 9.01288 3.38028 8.92926 3.3347C8.84563 3.28911 8.7518 3.26551 8.65655 3.2661H4.15656C4.05579 3.26614 3.95689 3.29325 3.87019 3.3446C3.78349 3.39594 3.71217 3.46963 3.66369 3.55797C3.61522 3.6463 3.59136 3.74604 3.59461 3.84675C3.59786 3.94746 3.6281 4.04545 3.68218 4.13047L9.62781 13.4736L3.74031 19.9536C3.65595 20.066 3.6167 20.2058 3.63027 20.3457C3.64384 20.4855 3.70925 20.6152 3.81364 20.7092C3.91802 20.8033 4.05382 20.8548 4.19432 20.8538C4.33481 20.8528 4.46983 20.7992 4.57281 20.7036L10.2503 14.458L14.1784 20.6305C14.2295 20.7108 14.3002 20.7769 14.3839 20.8225C14.4675 20.8681 14.5613 20.8917 14.6566 20.8911H19.1566C19.2573 20.891 19.3562 20.8639 19.4429 20.8126C19.5296 20.7612 19.6009 20.6876 19.6494 20.5992C19.6979 20.5109 19.7218 20.4112 19.7185 20.3104C19.7153 20.2097 19.685 20.1117 19.6309 20.0267ZM14.965 19.7661L5.18124 4.3911H8.34812L18.1319 19.7661H14.965Z" fill="#F3F3F3"/>
</svg>
